<?xml version="1.0" encoding="utf-8"?>
<!-- Generator: Adobe Illustrator 14.0.0, SVG Export Plug-In . SVG Version: 6.00 Build 43363)  -->
<!DOCTYPE svg PUBLIC "-//W3C//DTD SVG 1.1//EN" "http://www.w3.org/Graphics/SVG/1.1/DTD/svg11.dtd">
<svg version="1.1" id="Layer_1" xmlns="http://www.w3.org/2000/svg" xmlns:xlink="http://www.w3.org/1999/xlink" x="0px" y="0px"
	 width="268.082px" height="59.815px" viewBox="0 0 268.082 59.815" enable-background="new 0 0 268.082 59.815"
	 xml:space="preserve">
<g>
	<path fill="#F47B20" d="M28.791,2.285v8.525h-4.922l-0.264-3.582h-5.889v22.544l3.428,0.659v3.846H7.873v-3.846l3.428-0.659V7.229
		H5.434L5.17,10.811h-4.9V2.285H28.791z"/>
	<path fill="#F47B20" d="M40.684,34.738c-3.428,0-6.167-1.098-8.218-3.295c-2.051-2.198-3.076-4.988-3.076-8.372v-0.879
		c0-3.53,0.97-6.438,2.912-8.723c1.94-2.285,4.544-3.42,7.811-3.406c3.208,0,5.698,0.967,7.471,2.9s2.659,4.548,2.659,7.844v3.494
		H36.047l-0.044,0.132c0.117,1.567,0.641,2.856,1.571,3.867c0.93,1.011,2.193,1.516,3.79,1.516c1.421,0,2.6-0.143,3.538-0.428
		c0.938-0.286,1.963-0.736,3.076-1.352l1.736,3.955c-0.981,0.776-2.252,1.428-3.812,1.955
		C44.342,34.475,42.603,34.738,40.684,34.738z M40.112,15.007c-1.187,0-2.124,0.454-2.812,1.362s-1.113,2.102-1.274,3.582
		l0.066,0.11h7.866V19.49c0-1.362-0.318-2.45-0.956-3.263C42.365,15.414,41.401,15.007,40.112,15.007z"/>
	<path fill="#F47B20" d="M64.661,29.817c1.143,0,2.058-0.333,2.747-1s1.033-1.557,1.033-2.67h5.801l0.066,0.132
		c0.059,2.402-0.842,4.413-2.703,6.031c-1.86,1.619-4.175,2.428-6.943,2.428c-3.545,0-6.277-1.12-8.196-3.361
		s-2.878-5.12-2.878-8.635v-0.659c0-3.501,0.985-6.379,2.956-8.635c1.97-2.256,4.779-3.384,8.426-3.384
		c1.919,0,3.64,0.286,5.164,0.857s2.791,1.377,3.801,2.417l0.088,6.35h-5.208l-1.055-3.713c-0.322-0.278-0.718-0.509-1.187-0.692
		s-1.003-0.275-1.604-0.275c-1.816,0-3.098,0.659-3.845,1.978s-1.121,3.018-1.121,5.098v0.659c0,2.124,0.344,3.834,1.033,5.13
		C61.724,29.169,62.933,29.817,64.661,29.817z"/>
	<path fill="#F47B20" d="M77.081,30.432l3.098-0.659V4.526l-3.428-0.659V0h9.822v13.535c0.747-1.099,1.663-1.952,2.747-2.56
		s2.285-0.912,3.604-0.912c2.49,0,4.442,0.824,5.855,2.472c1.414,1.648,2.121,4.193,2.121,7.636v9.602l3.076,0.659v3.846H91.714
		v-3.846l2.769-0.659v-9.646c0-1.846-0.326-3.153-0.978-3.922c-0.652-0.77-1.622-1.154-2.911-1.154c-0.894,0-1.674,0.161-2.34,0.483
		c-0.667,0.322-1.227,0.776-1.681,1.362v12.876l2.769,0.659v3.846H77.081V30.432z"/>
	<path fill="#F47B20" d="M106.112,30.432l3.406-0.659V6.812l-3.406-0.659V2.285h25.466v8.767h-4.922l-0.286-3.823h-10.437v8.811
		h11.206v4.944h-11.206v8.789l3.428,0.659v3.846h-13.25V30.432z"/>
	<path fill="#F47B20" d="M134.088,30.432l3.098-0.659V15.029l-3.428-0.659v-3.867h9.844v19.27l3.076,0.659v3.846h-12.59V30.432z
		 M143.603,4.812h-6.416V0h6.416V4.812z"/>
	<path fill="#F47B20" d="M148.662,30.432l3.076-0.659V15.029l-3.406-0.659v-3.867h9.383L158,13.909
		c0.791-1.216,1.766-2.161,2.922-2.834c1.158-0.674,2.454-1.011,3.89-1.011c2.402,0,4.277,0.754,5.625,2.263
		s2.021,3.875,2.021,7.097v10.349l3.076,0.659v3.846h-12.261v-3.846l2.746-0.659V19.446c0-1.597-0.322-2.728-0.967-3.395
		c-0.645-0.666-1.618-1-2.922-1c-0.85,0-1.611,0.172-2.285,0.516c-0.674,0.345-1.238,0.832-1.691,1.461v12.744l2.592,0.659v3.846
		h-12.084V30.432z"/>
	<path fill="#F47B20" d="M193.052,31.377c-0.747,1.099-1.63,1.934-2.647,2.505c-1.019,0.571-2.18,0.856-3.482,0.856
		c-2.93,0-5.205-1.068-6.822-3.207c-1.619-2.139-2.429-4.966-2.429-8.482v-0.461c0-3.75,0.813-6.775,2.438-9.075
		c1.627-2.3,3.912-3.45,6.855-3.45c1.188,0,2.256,0.26,3.209,0.78c0.951,0.52,1.787,1.256,2.504,2.208V4.526l-3.428-0.659V0h3.428
		h6.416v29.773l3.076,0.659v3.846h-8.635L193.052,31.377z M184.087,23.049c0,2.08,0.348,3.717,1.044,4.911
		c0.695,1.194,1.834,1.791,3.416,1.791c0.938,0,1.751-0.19,2.439-0.571s1.252-0.93,1.691-1.648V17.446
		c-0.439-0.762-1-1.352-1.68-1.769c-0.682-0.418-1.484-0.626-2.406-0.626c-1.568,0-2.711,0.696-3.428,2.087
		c-0.719,1.392-1.077,3.208-1.077,5.449V23.049z"/>
	<path fill="#F47B20" d="M215.82,34.738c-3.428,0-6.167-1.098-8.218-3.295c-2.051-2.198-3.076-4.988-3.076-8.372v-0.879
		c0-3.53,0.97-6.438,2.911-8.723s4.545-3.42,7.812-3.406c3.208,0,5.698,0.967,7.471,2.9s2.659,4.548,2.659,7.844v3.494h-14.195
		l-0.043,0.132c0.117,1.567,0.641,2.856,1.57,3.867s2.193,1.516,3.791,1.516c1.42,0,2.6-0.143,3.537-0.428
		c0.938-0.286,1.963-0.736,3.076-1.352l1.736,3.955c-0.982,0.776-2.252,1.428-3.812,1.955S217.739,34.738,215.82,34.738z
		 M215.249,15.007c-1.187,0-2.124,0.454-2.812,1.362s-1.113,2.102-1.274,3.582l0.066,0.11h7.865V19.49
		c0-1.362-0.318-2.45-0.955-3.263C217.502,15.414,216.538,15.007,215.249,15.007z"/>
	<path fill="#F47B20" d="M229.119,30.432l3.076-0.659V15.029l-3.406-0.659v-3.867h9.383l0.285,3.472
		c0.557-1.23,1.275-2.19,2.154-2.878s1.896-1.033,3.054-1.033c0.337,0,0.692,0.026,1.065,0.077s0.686,0.113,0.934,0.187
		l-0.681,5.845l-2.637-0.066c-0.938,0-1.714,0.183-2.329,0.549s-1.084,0.886-1.406,1.56v11.558l3.076,0.659v3.846h-12.568V30.432z"
		/>
	<path fill="#F47B20" d="M267.203,18.677h-4.307l-0.681-2.966c-0.439-0.352-0.993-0.645-1.659-0.879
		c-0.667-0.234-1.403-0.352-2.208-0.352c-1.129,0-2.021,0.252-2.682,0.758c-0.659,0.505-0.988,1.139-0.988,1.9
		c0,0.718,0.315,1.315,0.945,1.791c0.629,0.476,1.889,0.897,3.779,1.263c2.943,0.586,5.126,1.447,6.547,2.582
		c1.421,1.136,2.132,2.699,2.132,4.691c0,2.139-0.919,3.886-2.758,5.24c-1.838,1.355-4.259,2.032-7.262,2.032
		c-1.831,0-3.512-0.268-5.043-0.802s-2.889-1.3-4.076-2.296l-0.065-5.339h4.482l0.879,3.098c0.381,0.322,0.901,0.561,1.561,0.714
		c0.658,0.154,1.347,0.23,2.064,0.23c1.304,0,2.297-0.234,2.978-0.703c0.682-0.469,1.022-1.106,1.022-1.912
		c0-0.703-0.345-1.311-1.033-1.824s-1.955-0.967-3.801-1.362c-2.798-0.571-4.911-1.417-6.34-2.538
		c-1.428-1.121-2.142-2.648-2.142-4.582c0-1.992,0.82-3.709,2.461-5.153c1.641-1.442,3.977-2.164,7.009-2.164
		c1.846,0,3.593,0.249,5.24,0.747c1.648,0.498,2.94,1.135,3.879,1.912L267.203,18.677z"/>
</g>
<g>
	<path fill="#3E3E3E" d="M11.404,52.503h0.053l2.136-5.484h2.716l-3.656,8.244v4.553h-2.496v-4.711l-3.595-8.086h2.733
		L11.404,52.503z"/>
	<path fill="#3E3E3E" d="M26.253,55.219c0,1.5-0.407,2.672-1.222,3.516S23.133,60,21.779,60s-2.435-0.422-3.243-1.266
		s-1.213-2.016-1.213-3.516v-3.586c0-1.494,0.404-2.667,1.213-3.521c0.809-0.852,1.887-1.278,3.234-1.278s2.432,0.427,3.252,1.278
		c0.82,0.854,1.23,2.026,1.23,3.521V55.219z M23.766,51.605c0-0.917-0.17-1.608-0.51-2.075c-0.34-0.468-0.835-0.701-1.485-0.701
		c-0.656,0-1.148,0.232-1.477,0.696s-0.492,1.157-0.492,2.08v3.614c0,0.929,0.167,1.625,0.501,2.089s0.826,0.696,1.477,0.696
		c0.645,0,1.137-0.232,1.477-0.696s0.51-1.16,0.51-2.089V51.605z"/>
	<path fill="#3E3E3E" d="M36.962,47.019v8.71c0,1.365-0.4,2.419-1.2,3.159C34.962,59.63,33.915,60,32.62,60
		s-2.342-0.372-3.142-1.116s-1.2-1.796-1.2-3.155v-8.71h2.496v8.71c0,0.779,0.161,1.354,0.483,1.723s0.776,0.554,1.362,0.554
		c0.604,0,1.063-0.176,1.38-0.527s0.475-0.935,0.475-1.749v-8.71H36.962z"/>
	<path fill="#3E3E3E" d="M41.8,54.727v5.089h-2.496V47.027h4.175c1.26,0,2.249,0.333,2.966,0.997
		c0.718,0.666,1.077,1.59,1.077,2.773c0,0.668-0.149,1.244-0.448,1.727c-0.299,0.484-0.735,0.869-1.31,1.156
		c0.656,0.223,1.129,0.592,1.419,1.107s0.435,1.16,0.435,1.934v0.905c0,0.352,0.041,0.729,0.123,1.13s0.226,0.692,0.431,0.874v0.185
		h-2.584c-0.205-0.188-0.334-0.492-0.387-0.914s-0.079-0.853-0.079-1.292v-0.87c0-0.639-0.13-1.134-0.391-1.485
		s-0.634-0.527-1.121-0.527H41.8z M41.8,52.731h1.67c0.51,0,0.896-0.155,1.16-0.466s0.396-0.753,0.396-1.327
		c0-0.586-0.132-1.052-0.396-1.397s-0.647-0.519-1.151-0.519H41.8V52.731z"/>
	<path fill="#3E3E3E" d="M60.221,56.476c0-0.498-0.129-0.893-0.387-1.182c-0.258-0.291-0.712-0.576-1.362-0.857
		c-1.33-0.463-2.328-0.988-2.993-1.578c-0.665-0.588-0.998-1.413-0.998-2.474c0-1.049,0.387-1.903,1.16-2.562
		c0.773-0.66,1.761-0.989,2.962-0.989c1.219,0,2.209,0.368,2.971,1.103c0.762,0.736,1.131,1.663,1.107,2.782l-0.018,0.053h-2.426
		c0-0.586-0.146-1.061-0.439-1.424s-0.706-0.545-1.239-0.545c-0.498,0-0.886,0.151-1.165,0.452
		c-0.278,0.303-0.417,0.682-0.417,1.139c0,0.422,0.155,0.77,0.466,1.041c0.311,0.273,0.85,0.576,1.617,0.91
		c1.213,0.41,2.125,0.931,2.738,1.561s0.918,1.48,0.918,2.553c0,1.107-0.369,1.975-1.107,2.602S59.89,60,58.665,60
		c-1.219,0-2.275-0.356-3.168-1.067c-0.894-0.713-1.326-1.733-1.296-3.063l0.018-0.053h2.435c0,0.791,0.167,1.359,0.501,1.705
		s0.838,0.519,1.512,0.519c0.527,0,0.918-0.141,1.173-0.422S60.221,56.956,60.221,56.476z"/>
	<path fill="#3E3E3E" d="M73.443,55.219c0,1.5-0.407,2.672-1.222,3.516S70.323,60,68.97,60s-2.435-0.422-3.243-1.266
		s-1.213-2.016-1.213-3.516v-3.586c0-1.494,0.404-2.667,1.213-3.521c0.809-0.852,1.887-1.278,3.234-1.278s2.432,0.427,3.252,1.278
		c0.82,0.854,1.23,2.026,1.23,3.521V55.219z M70.956,51.605c0-0.917-0.17-1.608-0.51-2.075c-0.34-0.468-0.835-0.701-1.485-0.701
		c-0.656,0-1.148,0.232-1.477,0.696s-0.492,1.157-0.492,2.08v3.614c0,0.929,0.167,1.625,0.501,2.089s0.826,0.696,1.477,0.696
		c0.645,0,1.137-0.232,1.477-0.696s0.51-1.16,0.51-2.089V51.605z"/>
	<path fill="#3E3E3E" d="M84.152,47.019v8.71c0,1.365-0.4,2.419-1.2,3.159C82.152,59.63,81.105,60,79.81,60
		s-2.342-0.372-3.142-1.116s-1.2-1.796-1.2-3.155v-8.71h2.496v8.71c0,0.779,0.161,1.354,0.483,1.723s0.776,0.554,1.362,0.554
		c0.604,0,1.063-0.176,1.38-0.527s0.475-0.935,0.475-1.749v-8.71H84.152z"/>
	<path fill="#3E3E3E" d="M88.99,54.727v5.089h-2.496V47.027h4.175c1.26,0,2.249,0.333,2.966,0.997
		c0.718,0.666,1.077,1.59,1.077,2.773c0,0.668-0.149,1.244-0.448,1.727c-0.299,0.484-0.735,0.869-1.31,1.156
		c0.656,0.223,1.129,0.592,1.419,1.107s0.435,1.16,0.435,1.934v0.905c0,0.352,0.041,0.729,0.123,1.13s0.226,0.692,0.431,0.874v0.185
		h-2.584c-0.205-0.188-0.334-0.492-0.387-0.914s-0.079-0.853-0.079-1.292v-0.87c0-0.639-0.13-1.134-0.391-1.485
		s-0.634-0.527-1.121-0.527H88.99z M88.99,52.731h1.67c0.51,0,0.896-0.155,1.16-0.466s0.396-0.753,0.396-1.327
		c0-0.586-0.132-1.052-0.396-1.397s-0.647-0.519-1.151-0.519H88.99V52.731z"/>
	<path fill="#3E3E3E" d="M105.262,55.693l0.026,0.053c0.012,1.406-0.322,2.467-1.002,3.182S102.605,60,101.281,60
		s-2.382-0.405-3.173-1.218c-0.791-0.811-1.187-1.961-1.187-3.449V51.51c0-1.482,0.382-2.632,1.147-3.45
		c0.765-0.816,1.789-1.226,3.072-1.226c1.359,0,2.386,0.363,3.081,1.09s1.053,1.802,1.077,3.226l-0.026,0.053h-2.408
		c0.035-0.841-0.079-1.446-0.343-1.817c-0.264-0.37-0.724-0.556-1.38-0.556c-0.562,0-0.993,0.22-1.292,0.66
		c-0.299,0.439-0.448,1.105-0.448,1.997v3.844c0,0.903,0.16,1.575,0.479,2.015c0.319,0.44,0.787,0.66,1.402,0.66
		c0.604,0,1.024-0.174,1.261-0.523c0.237-0.348,0.341-0.944,0.312-1.788H105.262z"/>
	<path fill="#3E3E3E" d="M114.143,54.199h-4.298v3.621h5.054v1.995h-7.559V47.019h7.541v1.995h-5.036v3.19h4.298V54.199z"/>
	<path fill="#3E3E3E" d="M128.073,54.498h-4.342v5.317h-2.505V47.019h7.611v1.995h-5.106v3.489h4.342V54.498z"/>
	<path fill="#3E3E3E" d="M139.318,55.219c0,1.5-0.408,2.672-1.223,3.516S136.197,60,134.844,60c-1.354,0-2.435-0.422-3.243-1.266
		s-1.213-2.016-1.213-3.516v-3.586c0-1.494,0.404-2.667,1.213-3.521c0.809-0.852,1.887-1.278,3.234-1.278
		c1.348,0,2.432,0.427,3.252,1.278c0.82,0.854,1.23,2.026,1.23,3.521V55.219z M136.83,51.605c0-0.917-0.17-1.608-0.51-2.075
		c-0.34-0.468-0.834-0.701-1.485-0.701c-0.656,0-1.148,0.232-1.477,0.696s-0.492,1.157-0.492,2.08v3.614
		c0,0.929,0.167,1.625,0.501,2.089s0.826,0.696,1.477,0.696c0.645,0,1.136-0.232,1.476-0.696s0.51-1.16,0.51-2.089V51.605z"/>
	<path fill="#3E3E3E" d="M143.988,54.727v5.089h-2.496V47.027h4.176c1.26,0,2.248,0.333,2.966,0.997
		c0.718,0.666,1.077,1.59,1.077,2.773c0,0.668-0.15,1.244-0.449,1.727c-0.299,0.484-0.734,0.869-1.309,1.156
		c0.656,0.223,1.129,0.592,1.419,1.107s0.435,1.16,0.435,1.934v0.905c0,0.352,0.041,0.729,0.123,1.13s0.227,0.692,0.432,0.874v0.185
		h-2.584c-0.205-0.188-0.334-0.492-0.387-0.914s-0.08-0.853-0.08-1.292v-0.87c0-0.639-0.13-1.134-0.391-1.485
		s-0.635-0.527-1.121-0.527H143.988z M143.988,52.731h1.67c0.51,0,0.896-0.155,1.16-0.466s0.396-0.753,0.396-1.327
		c0-0.586-0.133-1.052-0.396-1.397s-0.646-0.519-1.15-0.519h-1.68V52.731z"/>
	<path fill="#3E3E3E" d="M159.229,57.82h4.676v1.995h-7.182V47.019h2.506V57.82z"/>
	<path fill="#3E3E3E" d="M173.742,55.219c0,1.5-0.406,2.672-1.221,3.516S170.623,60,169.27,60s-2.436-0.422-3.244-1.266
		s-1.213-2.016-1.213-3.516v-3.586c0-1.494,0.404-2.667,1.213-3.521c0.809-0.852,1.887-1.278,3.234-1.278s2.432,0.427,3.252,1.278
		c0.82,0.854,1.23,2.026,1.23,3.521V55.219z M171.256,51.605c0-0.917-0.17-1.608-0.51-2.075c-0.34-0.468-0.836-0.701-1.486-0.701
		c-0.656,0-1.148,0.232-1.477,0.696s-0.492,1.157-0.492,2.08v3.614c0,0.929,0.168,1.625,0.502,2.089s0.826,0.696,1.477,0.696
		c0.645,0,1.137-0.232,1.477-0.696s0.51-1.16,0.51-2.089V51.605z"/>
	<path fill="#3E3E3E" d="M183.934,55.693l0.025,0.053c0.012,1.406-0.322,2.467-1.002,3.182S181.275,60,179.951,60
		s-2.381-0.405-3.172-1.218c-0.791-0.811-1.188-1.961-1.188-3.449V51.51c0-1.482,0.383-2.632,1.147-3.45
		c0.765-0.816,1.788-1.226,3.071-1.226c1.359,0,2.387,0.363,3.081,1.09s1.054,1.802,1.077,3.226l-0.027,0.053h-2.408
		c0.035-0.841-0.078-1.446-0.342-1.817c-0.264-0.37-0.725-0.556-1.381-0.556c-0.562,0-0.992,0.22-1.291,0.66
		c-0.299,0.439-0.449,1.105-0.449,1.997v3.844c0,0.903,0.16,1.575,0.479,2.015c0.319,0.44,0.786,0.66,1.401,0.66
		c0.604,0,1.024-0.174,1.262-0.523c0.237-0.348,0.342-0.944,0.312-1.788H183.934z"/>
	<path fill="#3E3E3E" d="M191.768,57.082h-3.375l-0.686,2.733h-2.522l3.604-12.797h2.602l3.595,12.797h-2.522L191.768,57.082z
		 M188.902,55.087h2.355l-1.151-4.526h-0.053L188.902,55.087z"/>
	<path fill="#3E3E3E" d="M199.022,57.82h4.676v1.995h-7.181V47.019h2.505V57.82z"/>
	<path fill="#3E3E3E" d="M217.505,49.014h-2.883v10.802h-2.496V49.014h-2.865v-1.995h8.244V49.014z"/>
	<path fill="#3E3E3E" d="M224.312,57.082h-3.375l-0.686,2.733h-2.522l3.604-12.797h2.602l3.595,12.797h-2.522L224.312,57.082z
		 M221.446,55.087h2.355l-1.151-4.526h-0.053L221.446,55.087z"/>
	<path fill="#3E3E3E" d="M231.566,57.82h4.676v1.995h-7.181V47.019h2.505V57.82z"/>
	<path fill="#3E3E3E" d="M244.833,54.199h-4.298v3.621h5.054v1.995h-7.559V47.019h7.541v1.995h-5.036v3.19h4.298V54.199z"/>
	<path fill="#3E3E3E" d="M256.387,59.815h-2.488l-3.911-8.183l-0.053,0.018v8.165h-2.505V47.019h2.505l3.911,8.174l0.053-0.018
		v-8.156h2.488V59.815z"/>
	<path fill="#3E3E3E" d="M266.154,49.014h-2.883v10.802h-2.496V49.014h-2.865v-1.995h8.244V49.014z"/>
</g>
</svg>
